HIERARCHY
ROOT Hips
{
	OFFSET 0.00000 0.00000 0.00000
	CHANNELS 6 Xposition Yposition Zposition Zrotation Yrotation Xrotation 
	JOINT LHipJoint
	{
		OFFSET 0 0 0
		CHANNELS 3 Zrotation Yrotation Xrotation
		JOINT LeftUpLeg
		{
			OFFSET 1.58895 -1.83665 0.71753
			CHANNELS 3 Zrotation Yrotation Xrotation
			JOINT LeftLeg
			{
				OFFSET 2.50528 -6.88321 0.00000
				CHANNELS 3 Zrotation Yrotation Xrotation
				JOINT LeftFoot
				{
					OFFSET 2.63244 -7.23257 0.00000
					CHANNELS 3 Zrotation Yrotation Xrotation
					JOINT LeftToeBase
					{
						OFFSET 0.23691 -0.65090 1.72750
						CHANNELS 3 Zrotation Yrotation Xrotation
						End Site
						{
							OFFSET 0.00000 -0.00000 0.92561
						}
					}
				}
			}
		}
	}
	JOINT RHipJoint
	{
		OFFSET 0 0 0
		CHANNELS 3 Zrotation Yrotation Xrotation
		JOINT RightUpLeg
		{
			OFFSET -1.51435 -1.83665 0.71753
			CHANNELS 3 Zrotation Yrotation Xrotation
			JOINT RightLeg
			{
				OFFSET -2.54551 -6.99375 0.00000
				CHANNELS 3 Zrotation Yrotation Xrotation
				JOINT RightFoot
				{
					OFFSET -2.66027 -7.30903 0.00000
					CHANNELS 3 Zrotation Yrotation Xrotation
					JOINT RightToeBase
					{
						OFFSET -0.22981 -0.63138 2.03959
						CHANNELS 3 Zrotation Yrotation Xrotation
						End Site
						{
							OFFSET -0.00000 -0.00000 1.07060
						}
					}
				}
			}
		}
	}
	JOINT LowerBack
	{
		OFFSET 0 0 0
		CHANNELS 3 Zrotation Yrotation Xrotation
		JOINT Spine
		{
			OFFSET -0.02651 1.86275 -0.11152
			CHANNELS 3 Zrotation Yrotation Xrotation
			JOINT Spine1
			{
				OFFSET 0.01019 1.86224 0.04087
				CHANNELS 3 Zrotation Yrotation Xrotation
				JOINT Neck
				{
					OFFSET 0 0 0
					CHANNELS 3 Zrotation Yrotation Xrotation
					JOINT Neck1
					{
						OFFSET -0.01926 1.80512 0.08867
						CHANNELS 3 Zrotation Yrotation Xrotation
						JOINT Head
						{
							OFFSET 0.05516 1.76451 -0.38475
							CHANNELS 3 Zrotation Yrotation Xrotation
							End Site
							{
								OFFSET 0.01592 1.82587 -0.14001
							}
						}
					}
				}
				JOINT LeftShoulder
				{
					OFFSET 0 0 0
					CHANNELS 3 Zrotation Yrotation Xrotation
					JOINT LeftArm
					{
						OFFSET 3.47116 1.51376 0.14491
						CHANNELS 3 Zrotation Yrotation Xrotation
						JOINT LeftForeArm
						{
							OFFSET 4.78095 -0.00000 0.00000
							CHANNELS 3 Zrotation Yrotation Xrotation
							JOINT LeftHand
							{
								OFFSET 3.58615 -0.00000 -0.00000
								CHANNELS 3 Zrotation Yrotation Xrotation
								JOINT LeftFingerBase
								{
									OFFSET 0 0 0
									CHANNELS 3 Zrotation Yrotation Xrotation
									JOINT LeftHandIndex1
									{
										OFFSET 0.65981 -0.00000 0.00000
										CHANNELS 3 Zrotation Yrotation Xrotation
										End Site
										{
											OFFSET 0.53196 -0.00000 0.00000
										}
									}
								}
								JOINT LThumb
								{
									OFFSET 0 0 0
									CHANNELS 3 Zrotation Yrotation Xrotation
									End Site
									{
										OFFSET 0.54008 -0.00000 0.54008
									}
								}
							}
						}
					}
				}
				JOINT RightShoulder
				{
					OFFSET 0 0 0
					CHANNELS 3 Zrotation Yrotation Xrotation
					JOINT RightArm
					{
						OFFSET -3.31725 1.61216 0.35156
						CHANNELS 3 Zrotation Yrotation Xrotation
						JOINT RightForeArm
						{
							OFFSET -4.48913 -0.00000 0.00000
							CHANNELS 3 Zrotation Yrotation Xrotation
							JOINT RightHand
							{
								OFFSET -3.70510 -0.00000 0.00000
								CHANNELS 3 Zrotation Yrotation Xrotation
								JOINT RightFingerBase
								{
									OFFSET 0 0 0
									CHANNELS 3 Zrotation Yrotation Xrotation
									JOINT RightHandIndex1
									{
										OFFSET -0.44914 -0.00000 0.00000
										CHANNELS 3 Zrotation Yrotation Xrotation
										End Site
										{
											OFFSET -0.36211 -0.00000 0.00000
										}
									}
								}
								JOINT RThumb
								{
									OFFSET 0 0 0
									CHANNELS 3 Zrotation Yrotation Xrotation
									End Site
									{
										OFFSET -0.36763 -0.00000 0.36763
									}
								}
							}
						}
					}
				}
			}
		}
	}
}
MOTION
Frames: 8
Frame Time: .0083333
-0.6428 18.6503 6.0138 0 0 0 0 0 0 -21 0 0 0 0 0 0 0 0 0 0 0 0 0 0 21 0 0 0 0 0 0 0 0 0 0 0 0 0 0 0 0 0 0 0 0 0 0 -16 0 0 21 0 0 11 0 0 0 -8 0 0 0 0 0 0 0 0 0 0 0 0 0 0 0 0 0 0 0 0 8 0 0 0 0 0 0 0 0 0 0 0 0 0 0 0 0 0
-0.6428 18.6503 6.0138 -3.9057 -4.3926 -1.1507 0.0000 0.0000 0.0000 -11.8516 -7.0266 0.3920 1.5665 7.8979 22.4043 1.7446 5.6093 -27.4957 8.2529 -16.3021 -53.4685 0.0000 0.0000 0.0000 17.3844 -3.1277 9.8066 0.0000 0.0000 -0.0000 -0.7337 -3.0400 -17.5618 -0.1919 2.8212 -7.7813 0.2283 1.0212 5.2782 1.2865 1.3884 1.8304 1.1070 0.6908 -1.1033 -1.8530 -2.1569 -8.7339 9.3291 -4.2720 16.1372 2.9430 -1.4388 6.5903 0.0000 0.0000 0.0000 -88.2636 10.1544 43.6228 32.2002 -42.7062 -12.8764 -0.0000 0.0000 -4.5522 8.6426 -28.8556 -4.1953 -7.1250 0.0000 -0.0000 -12.8527 1.4765 12.8474 0.0000 0.0000 0.0000 87.7014 -13.7554 35.2875 -37.0864 46.2458 -16.3024 0.0000 0.0000 1.8060 -11.0661 -28.5168 5.3343 7.1250 -0.0000 -0.0000 21.6922 -57.6047 -6.9108
-0.6428 18.6521 6.0047 -3.8364 -4.4845 -1.1494 0.0000 0.0000 0.0000 -11.9144 -6.9341 0.3852 1.5545 7.8689 22.3167 1.7298 5.6849 -27.4357 8.2613 -16.3081 -53.4985 0.0000 0.0000 0.0000 17.3207 -3.0202 9.7817 0.0000 -0.0000 0.0000 -0.7261 -3.1214 -17.5241 -0.2028 2.8998 -8.0000 0.0552 1.0280 5.2978 1.3237 1.3877 1.9560 1.2433 0.6895 -0.9902 -1.8456 -2.1142 -8.6790 9.1348 -4.1901 16.2604 2.8874 -1.4123 6.6100 -0.0000 -0.0000 0.0000 -88.0583 10.2502 44.4237 34.1606 -44.2034 -14.2249 -0.0000 0.0000 -5.8782 9.5866 -29.6418 -4.7749 -7.1250 0.0000 -0.0000 -12.3453 0.5927 12.5118 -0.0000 -0.0000 0.0000 88.6292 -16.5805 33.1706 -44.1820 50.3614 -21.6070 0.0000 0.0000 2.6896 -11.0535 -27.6712 5.1837 7.1250 -0.0000 -0.0000 21.1274 -56.8185 -6.3132
-0.6440 18.6543 5.9901 -3.6262 -4.6479 -1.1956 0.0000 0.0000 0.0000 -12.1654 -6.9686 0.4186 1.5543 7.8685 22.3153 1.7331 5.8262 -27.5382 8.2383 -16.2918 -53.4166 0.0000 0.0000 0.0000 17.1115 -2.8469 9.7991 0.0000 0.0000 -0.0000 -0.7180 -3.1875 -17.4730 -0.2025 2.8975 -7.9935 -0.4520 1.0252 5.1257 1.4238 1.3557 2.2974 1.6396 0.6682 -0.5571 -1.8095 -2.0178 -8.8530 8.7898 -4.0138 16.3848 2.7849 -1.3447 6.6618 0.0000 0.0000 0.0000 -88.0416 9.9402 45.0100 36.2370 -45.6755 -15.6918 -0.0000 0.0000 -7.0934 10.4521 -30.3371 -5.3232 -7.1250 0.0000 -0.0000 -11.8890 -0.2008 12.1957 0.0000 0.0000 0.0000 88.3105 -16.2320 33.6657 -46.4105 51.4411 -23.3366 0.0000 0.0000 2.1725 -9.9549 -29.0369 4.8693 7.1250 -0.0000 -0.0000 23.1916 -57.8450 -7.5589
-0.6422 18.6528 5.9951 -3.7707 -4.5594 -1.1822 0.0000 0.0000 0.0000 -11.9868 -6.8920 0.3902 1.5537 7.8670 22.3108 1.7308 5.6919 -27.4464 8.2342 -16.2889 -53.4021 0.0000 0.0000 0.0000 17.2536 -2.9455 9.8031 0.0000 -0.0000 0.0000 -0.7175 -3.1935 -17.4714 -0.2140 2.9782 -8.2181 -0.0574 1.0153 5.5276 1.3231 1.3653 2.0429 1.3041 0.6777 -1.0311 -1.7462 -2.0368 -8.6149 8.7533 -4.0881 16.9522 2.7634 -1.3700 6.8032 -0.0000 -0.0000 0.0000 -87.4995 10.5870 45.9708 38.6657 -47.2592 -17.4528 -0.0000 0.0000 -8.2263 11.8659 -30.3188 -6.0545 -7.1250 0.0000 -0.0000 -11.0785 -0.3775 11.3652 -0.0000 -0.0000 0.0000 88.4910 -16.8553 33.8863 -49.0781 52.6169 -25.4398 0.0000 0.0000 2.0838 -11.1359 -27.3523 5.1679 7.1250 -0.0000 -0.0000 20.8347 -56.5387 -6.0773
-0.6410 18.6535 5.9920 -3.7926 -4.5544 -1.1581 0.0000 0.0000 0.0000 -11.9422 -6.8246 0.3279 1.5529 7.8650 22.3049 1.7295 5.6447 -27.4116 8.2354 -16.2897 -53.4062 0.0000 0.0000 0.0000 17.2735 -2.9405 9.7708 0.0000 -0.0000 0.0000 -0.7172 -3.1990 -17.4716 -0.2147 2.9828 -8.2308 0.0583 1.0128 5.6813 1.2580 1.3688 1.9845 1.1686 0.6803 -1.1725 -1.6904 -2.0585 -8.4866 8.6721 -4.1480 17.4023 2.7280 -1.3929 6.9255 0.0000 -0.0000 0.0000 -87.1387 10.8361 46.6711 41.2308 -48.7824 -19.3600 -0.0000 0.0000 -9.2475 13.2699 -30.3279 -6.7911 -7.1250 0.0000 -0.0000 -10.2739 -0.5918 10.5498 0.0000 -0.0000 0.0000 88.5074 -17.0284 34.2295 -51.9935 53.7685 -27.7743 0.0000 0.0000 1.8896 -12.0547 -25.7807 5.3065 7.1250 -0.0000 -0.0000 18.9471 -55.2448 -4.8944
-0.6404 18.6549 5.9856 -3.7775 -4.6071 -1.1421 0.0000 0.0000 0.0000 -11.9439 -6.7542 0.2560 1.5561 7.8729 22.3287 1.7257 5.6499 -27.3880 8.2569 -16.3050 -53.4826 0.0000 0.0000 0.0000 17.2602 -2.8757 9.7447 0.0000 -0.0000 0.0000 -0.7173 -3.2181 -17.4827 -0.2165 2.9957 -8.2668 -0.0220 0.9802 5.5540 1.2581 1.3185 2.1275 1.2209 0.6541 -0.9555 -1.5276 -2.0288 -8.5017 8.3413 -4.1035 17.8017 2.6006 -1.3773 7.0444 0.0000 -0.0000 0.0000 -86.9663 10.7232 47.0977 43.9531 -50.2452 -21.4308 -0.0000 0.0000 -10.2291 14.1513 -30.5803 -7.3096 -7.1250 0.0000 -0.0000 -9.7899 -0.9775 10.1031 0.0000 -0.0000 0.0000 88.2209 -16.7597 34.9423 -54.9185 54.7963 -30.1494 0.0000 0.0000 1.4976 -12.1818 -25.4673 5.3033 7.1250 -0.0000 -0.0000 18.6402 -54.9722 -4.6855
-0.6396 18.6552 5.9794 -3.7612 -4.6592 -1.1583 0.0000 0.0000 0.0000 -11.9648 -6.7166 0.2460 1.5573 7.8756 22.3369 1.7180 5.6859 -27.3549 8.2705 -16.3147 -53.5314 0.0000 0.0000 0.0000 17.2470 -2.8201 9.7463 0.0000 -0.0000 0.0000 -0.7136 -3.2850 -17.4807 -0.2277 3.0714 -8.4775 -0.2652 0.9091 5.1394 1.3535 1.2069 2.4742 1.4726 0.5936 -0.3732 -1.4591 -1.9257 -8.6197 7.9756 -3.9269 18.0964 2.4875 -1.3086 7.1422 0.0000 0.0000 0.0000 -86.9762 10.2392 47.3659 46.7484 -51.5968 -23.6011 -0.0000 0.0000 -11.2088 14.9945 -30.8023 -7.8099 -7.1250 0.0000 -0.0000 -9.3278 -1.3330 9.6702 0.0000 0.0000 0.0000 87.6466 -16.0721 35.9649 -57.8731 55.7160 -32.5774 0.0000 0.0000 0.7861 -12.5148 -25.2363 5.4061 7.1250 -0.0000 -0.0000 18.1790 -54.8162 -4.4936
